<?xml version="1.0" encoding="iso-8859-1"?>
<!-- Uploaded to: SVG Repo, www.svgrepo.com, Generator: SVG Repo Mixer Tools -->
<svg fill="#000000" version="1.1" id="Layer_1" xmlns="http://www.w3.org/2000/svg" xmlns:xlink="http://www.w3.org/1999/xlink" 
	 viewBox="0 0 512 512" xml:space="preserve">
<g>
	<g>
		<path d="M512,151.941c0-70.54-57.389-127.927-127.929-127.927H167.95c-70.539,0-127.928,57.389-127.928,127.927
			c0,34.536,13.49,66.673,37.519,90.539C31.983,262.078,0,307.401,0,360.059v127.927h344.049
			c70.539,0,127.928-57.389,127.928-127.927c0-30.338-10.622-58.237-28.333-80.19H512V151.941z M456.257,360.059
			c0,61.871-50.335,112.207-112.208,112.207H15.721V360.059c0-48.925,31.478-90.629,75.242-105.943
			c0.071,0.053,0.139,0.11,0.211,0.164l0.242-0.323c11.452-3.951,23.734-6.104,36.512-6.104h216.122
			C405.92,247.852,456.257,298.187,456.257,360.059z M496.28,264.148h-0.001h-67.674c-22.561-19.914-52.169-32.018-84.556-32.018
			H127.927c-11.625,0-22.888,1.568-33.6,4.487c-24.614-21.34-38.585-51.766-38.585-84.677c0-61.871,50.335-112.206,112.208-112.206
			h216.122c61.871,0,112.209,50.335,112.209,112.206V264.148z"/>
	</g>
</g>
<g>
	<g>
		<rect x="96.776" y="287.572" width="94.324" height="15.721"/>
	</g>
</g>
<g>
	<g>
		<rect x="96.776" y="320.061" width="206.464" height="15.721"/>
	</g>
</g>
<g>
	<g>
		<rect x="320.009" y="320.061" width="56.594" height="15.721"/>
	</g>
</g>
<g>
	<g>
		<rect x="96.776" y="352.55" width="86.987" height="15.721"/>
	</g>
</g>
<g>
	<g>
		<rect x="199.484" y="352.55" width="16.769" height="15.721"/>
	</g>
</g>
<g>
	<g>
		<rect x="231.974" y="352.55" width="15.721" height="15.721"/>
	</g>
</g>
<g>
	<g>
		<rect x="264.463" y="352.55" width="15.721" height="15.721"/>
	</g>
</g>
<g>
	<g>
		<rect x="96.776" y="383.992" width="199.128" height="15.721"/>
	</g>
</g>
<g>
	<g>
		<rect x="96.776" y="415.433" width="62.883" height="15.721"/>
	</g>
</g>
<g>
	<g>
		<rect x="159.659" y="80.059" width="96.42" height="15.721"/>
	</g>
</g>
<g>
	<g>
		<rect x="159.659" y="112.549" width="143.582" height="15.721"/>
	</g>
</g>
<g>
	<g>
		<rect x="320.009" y="112.549" width="103.756" height="15.721"/>
	</g>
</g>
<g>
	<g>
		<rect x="159.659" y="143.99" width="15.721" height="15.721"/>
	</g>
</g>
<g>
	<g>
		<rect x="191.1" y="143.99" width="17.817" height="15.721"/>
	</g>
</g>
<g>
	<g>
		<rect x="224.637" y="143.99" width="15.721" height="15.721"/>
	</g>
</g>
<g>
	<g>
		<rect x="256.079" y="143.99" width="15.721" height="15.721"/>
	</g>
</g>
<g>
	<g>
		<rect x="159.659" y="175.431" width="39.826" height="15.721"/>
	</g>
</g>
<g>
	<g>
		<rect x="216.253" y="175.431" width="112.141" height="15.721"/>
	</g>
</g>
<g>
	<g>
		<rect x="31.795" y="439.538" width="15.721" height="15.721"/>
	</g>
</g>
<g>
	<g>
		<rect x="464.639" y="232.025" width="15.721" height="15.721"/>
	</g>
</g>
</svg>