<?xml version="1.0" ?><!-- Uploaded to: SVG Repo, www.svgrepo.com, Generator: SVG Repo Mixer Tools -->
<svg fill="#000000" width="800px" height="800px" viewBox="0 0 32 32" id="OBJECT" xmlns="http://www.w3.org/2000/svg"><title/><path d="M7.49,7.29A10.51,10.51,0,0,1,16,3a10.63,10.63,0,0,1,8.59,4.41,6.82,6.82,0,0,1,1.53-.69,2.22,2.22,0,0,1,.37-.09,12.59,12.59,0,0,0-20.6-.54,1,1,0,0,0,1.6,1.2Z"/><path d="M27.29,8.63a1,1,0,0,0-.58,0,5.16,5.16,0,0,0,0,9.91,1.07,1.07,0,0,0,.58,0,5.16,5.16,0,0,0,0-9.91Z"/><path d="M24.51,24.71A10.51,10.51,0,0,1,16,29a10.63,10.63,0,0,1-8.59-4.41,6.82,6.82,0,0,1-1.53.69,2.22,2.22,0,0,1-.37.09,12.59,12.59,0,0,0,20.6.54,1,1,0,0,0-1.6-1.2Z"/><path d="M9,18.42a5.18,5.18,0,0,0-3.71-5,1,1,0,0,0-.58,0,5.16,5.16,0,0,0,0,9.91.87.87,0,0,0,.58,0A5.17,5.17,0,0,0,9,18.42Z"/><path d="M16,11.31a3.66,3.66,0,0,0-4.92.3,3.81,3.81,0,0,0,0,5.3l4.21,4.29a1,1,0,0,0,1.42,0l4.21-4.29a3.81,3.81,0,0,0,0-5.3A3.75,3.75,0,0,0,16,11.31Z"/></svg>