<svg xmlns="http://www.w3.org/2000/svg" xmlns:xlink="http://www.w3.org/1999/xlink" version="1.1" width="256" height="256" viewBox="0 0 256 256" xml:space="preserve">

<defs>
</defs>
<g style="stroke: none; stroke-width: 0; stroke-dasharray: none; stroke-linecap: butt; stroke-linejoin: miter; stroke-miterlimit: 10; fill: none; fill-rule: nonzero; opacity: 1;" transform="translate(1.4065934065934016 1.4065934065934016) scale(2.81 2.81)" >
	<path d="M 29.209 90 H 10.96 c -1.104 0 -2 -0.896 -2 -2 V 46.864 c 0 -1.104 0.895 -2 2 -2 h 18.249 c 2.188 0 3.969 1.78 3.969 3.969 v 37.198 C 33.178 88.219 31.398 90 29.209 90 z M 12.96 86 h 16.249 l -0.031 -37.167 L 12.96 48.86 V 86 z" style="stroke: none; stroke-width: 1; stroke-dasharray: none; stroke-linecap: butt; stroke-linejoin: miter; stroke-miterlimit: 10; fill: rgb(0,0,0); fill-rule: nonzero; opacity: 1;" transform=" matrix(1 0 0 1 0 0) " stroke-linecap="round" />
	<path d="M 50.455 90 c -5.148 0 -10.29 -1.294 -13.53 -3.439 c -0.973 -0.644 -2.013 -0.984 -3.008 -0.984 h -2.739 c -1.104 0 -2 -0.895 -2 -2 V 51.098 c 0 -1.104 0.895 -2 2 -2 h 5.216 C 41.4 48.731 47.917 36.924 49.1 26.047 c 0.136 -1.252 0.811 -2.376 1.853 -3.083 c 0.994 -0.675 2.215 -0.882 3.354 -0.565 c 1.645 0.455 3.93 1.771 5.474 5.455 c 2.077 4.955 2.021 12.176 0.704 16.977 h 13.409 c 3.94 0 7.146 3.205 7.146 7.145 c 0 2.02 -0.842 3.846 -2.193 5.146 c 1.352 1.301 2.193 3.127 2.193 5.146 c 0 2.426 -1.215 4.573 -3.069 5.865 c 0.964 1.218 1.54 2.757 1.54 4.427 c 0 2.645 -1.445 4.96 -3.588 6.195 c 0.815 1.161 1.294 2.574 1.294 4.097 c 0 3.94 -3.205 7.146 -7.145 7.146 H 53.615 c -0.063 0 -0.127 -0.003 -0.188 -0.009 H 51.22 C 50.965 89.998 50.71 90 50.455 90 z M 33.178 81.577 h 0.739 c 1.782 0 3.586 0.57 5.216 1.648 c 2.711 1.795 7.409 2.862 12.037 2.767 l 2.445 -0.001 c 0.063 0 0.127 0.003 0.188 0.009 h 16.267 c 1.734 0 3.145 -1.411 3.145 -3.146 c 0 -1.734 -1.411 -3.145 -3.145 -3.145 c -1.104 0 -2 -0.896 -2 -2 c 0 -1.104 0.896 -2 2 -2 h 2.293 c 1.735 0 3.146 -1.411 3.146 -3.146 c 0 -1.735 -1.411 -3.146 -3.146 -3.146 c -1.104 0 -2 -0.895 -2 -2 c 0 -1.104 0.896 -2 2 -2 h 1.529 c 1.735 0 3.146 -1.411 3.146 -3.145 c 0 -1.735 -1.411 -3.146 -3.146 -3.146 c -1.104 0 -2 -0.896 -2 -2 c 0 -1.104 0.895 -2 2 -2 c 1.735 0 3.146 -1.411 3.146 -3.146 c 0 -1.734 -1.411 -3.145 -3.146 -3.145 h -16.31 c -0.709 0 -1.364 -0.375 -1.724 -0.985 c -0.359 -0.611 -0.369 -1.366 -0.024 -1.986 c 1.797 -3.237 2.278 -11.636 0.257 -16.46 c -0.742 -1.769 -1.701 -2.828 -2.853 -3.146 c -0.031 0.004 -0.147 0.083 -0.163 0.225 c -1.172 10.783 -8.017 26.124 -16.502 26.616 c -0.039 0.002 -0.077 0.003 -0.116 0.003 h -3.28 V 81.577 z" style="stroke: none; stroke-width: 1; stroke-dasharray: none; stroke-linecap: butt; stroke-linejoin: miter; stroke-miterlimit: 10; fill: rgb(0,0,0); fill-rule: nonzero; opacity: 1;" transform=" matrix(1 0 0 1 0 0) " stroke-linecap="round" />
	<path d="M 73.893 59.123 h -8.805 c -1.104 0 -2 -0.896 -2 -2 c 0 -1.104 0.895 -2 2 -2 h 8.805 c 1.104 0 2 0.896 2 2 C 75.893 58.227 74.998 59.123 73.893 59.123 z" style="stroke: none; stroke-width: 1; stroke-dasharray: none; stroke-linecap: butt; stroke-linejoin: miter; stroke-miterlimit: 10; fill: rgb(0,0,0); fill-rule: nonzero; opacity: 1;" transform=" matrix(1 0 0 1 0 0) " stroke-linecap="round" />
	<path d="M 72.364 69.415 h -7.275 c -1.104 0 -2 -0.895 -2 -2 c 0 -1.104 0.895 -2 2 -2 h 7.275 c 1.104 0 2 0.896 2 2 C 74.364 68.519 73.468 69.415 72.364 69.415 z" style="stroke: none; stroke-width: 1; stroke-dasharray: none; stroke-linecap: butt; stroke-linejoin: miter; stroke-miterlimit: 10; fill: rgb(0,0,0); fill-rule: nonzero; opacity: 1;" transform=" matrix(1 0 0 1 0 0) " stroke-linecap="round" />
	<path d="M 70.071 79.708 h -4.982 c -1.104 0 -2 -0.896 -2 -2 c 0 -1.104 0.895 -2 2 -2 h 4.982 c 1.104 0 2 0.896 2 2 C 72.071 78.812 71.175 79.708 70.071 79.708 z" style="stroke: none; stroke-width: 1; stroke-dasharray: none; stroke-linecap: butt; stroke-linejoin: miter; stroke-miterlimit: 10; fill: rgb(0,0,0); fill-rule: nonzero; opacity: 1;" transform=" matrix(1 0 0 1 0 0) " stroke-linecap="round" />
	<path d="M 53.289 17.828 c -1.104 0 -2 -0.895 -2 -2 V 2 c 0 -1.104 0.896 -2 2 -2 c 1.104 0 2 0.895 2 2 v 13.827 C 55.289 16.932 54.393 17.828 53.289 17.828 z" style="stroke: none; stroke-width: 1; stroke-dasharray: none; stroke-linecap: butt; stroke-linejoin: miter; stroke-miterlimit: 10; fill: rgb(0,0,0); fill-rule: nonzero; opacity: 1;" transform=" matrix(1 0 0 1 0 0) " stroke-linecap="round" />
	<path d="M 38.982 23.552 c -0.547 0 -1.092 -0.223 -1.487 -0.662 l -8.585 -9.535 c -0.739 -0.821 -0.673 -2.085 0.148 -2.825 c 0.82 -0.74 2.084 -0.673 2.825 0.148 l 8.585 9.535 c 0.739 0.821 0.673 2.085 -0.148 2.825 C 39.937 23.382 39.459 23.552 38.982 23.552 z" style="stroke: none; stroke-width: 1; stroke-dasharray: none; stroke-linecap: butt; stroke-linejoin: miter; stroke-miterlimit: 10; fill: rgb(0,0,0); fill-rule: nonzero; opacity: 1;" transform=" matrix(1 0 0 1 0 0) " stroke-linecap="round" />
	<path d="M 67.596 23.552 c -0.477 0 -0.955 -0.169 -1.337 -0.514 c -0.821 -0.739 -0.888 -2.004 -0.148 -2.825 l 8.585 -9.535 c 0.738 -0.82 2.004 -0.888 2.824 -0.148 c 0.821 0.739 0.888 2.004 0.148 2.825 l -8.585 9.535 C 68.689 23.328 68.144 23.552 67.596 23.552 z" style="stroke: none; stroke-width: 1; stroke-dasharray: none; stroke-linecap: butt; stroke-linejoin: miter; stroke-miterlimit: 10; fill: rgb(0,0,0); fill-rule: nonzero; opacity: 1;" transform=" matrix(1 0 0 1 0 0) " stroke-linecap="round" />
	<path d="M 23.793 82.569 h -2.724 c -1.104 0 -2 -0.896 -2 -2 c 0 -1.104 0.895 -2 2 -2 h 2.724 c 1.104 0 2 0.896 2 2 C 25.793 81.673 24.897 82.569 23.793 82.569 z" style="stroke: none; stroke-width: 1; stroke-dasharray: none; stroke-linecap: butt; stroke-linejoin: miter; stroke-miterlimit: 10; fill: rgb(0,0,0); fill-rule: nonzero; opacity: 1;" transform=" matrix(1 0 0 1 0 0) " stroke-linecap="round" />
</g>
</svg>