<svg xmlns="http://www.w3.org/2000/svg" xmlns:xlink="http://www.w3.org/1999/xlink" version="1.1" width="256" height="256" viewBox="0 0 256 256" xml:space="preserve">

<defs>
</defs>
<g style="stroke: none; stroke-width: 0; stroke-dasharray: none; stroke-linecap: butt; stroke-linejoin: miter; stroke-miterlimit: 10; fill: none; fill-rule: nonzero; opacity: 1;" transform="translate(1.4065934065934016 1.4065934065934016) scale(2.81 2.81)" >
	<path d="M 80.313 77.983 L 68.984 53.691 c 5.113 -5.704 8.23 -13.232 8.23 -21.477 C 77.214 14.451 62.763 0 45 0 S 12.786 14.451 12.786 32.214 c 0 8.245 3.117 15.773 8.23 21.477 L 9.688 77.983 c -0.135 0.289 -0.124 0.625 0.029 0.904 c 0.153 0.279 0.431 0.469 0.747 0.51 l 12.716 1.675 l 9.457 8.665 C 32.822 89.908 33.064 90 33.312 90 c 0.065 0 0.13 -0.006 0.195 -0.02 c 0.312 -0.062 0.576 -0.27 0.711 -0.558 L 45 66.3 l 10.782 23.122 c 0.135 0.288 0.398 0.496 0.711 0.558 c 0.065 0.014 0.131 0.02 0.195 0.02 c 0.248 0 0.489 -0.092 0.676 -0.263 l 9.457 -8.665 l 12.716 -1.675 c 0.315 -0.041 0.593 -0.23 0.746 -0.51 S 80.447 78.272 80.313 77.983 z M 45 2 c 16.66 0 30.214 13.554 30.214 30.214 S 61.66 62.428 45 62.428 S 14.786 48.874 14.786 32.214 S 28.34 2 45 2 z M 32.981 87.342 l -8.683 -7.957 c -0.151 -0.139 -0.342 -0.228 -0.545 -0.254 l -11.676 -1.538 l 10.424 -22.355 c 5.517 5.393 12.955 8.823 21.181 9.156 L 32.981 87.342 z M 66.247 79.131 c -0.203 0.026 -0.394 0.115 -0.545 0.254 l -8.684 7.957 l -10.7 -22.948 c 8.226 -0.333 15.664 -3.764 21.181 -9.156 l 10.425 22.355 L 66.247 79.131 z" style="stroke: none; stroke-width: 1; stroke-dasharray: none; stroke-linecap: butt; stroke-linejoin: miter; stroke-miterlimit: 10; fill: rgb(0,0,0); fill-rule: nonzero; opacity: 1;" transform=" matrix(1 0 0 1 0 0) " stroke-linecap="round" />
	<path d="M 45 55.087 c -12.612 0 -22.874 -10.261 -22.874 -22.873 c 0 -0.552 0.448 -1 1 -1 s 1 0.448 1 1 c 0 11.509 9.364 20.873 20.874 20.873 c 0.552 0 1 0.447 1 1 S 45.552 55.087 45 55.087 z" style="stroke: none; stroke-width: 1; stroke-dasharray: none; stroke-linecap: butt; stroke-linejoin: miter; stroke-miterlimit: 10; fill: rgb(0,0,0); fill-rule: nonzero; opacity: 1;" transform=" matrix(1 0 0 1 0 0) " stroke-linecap="round" />
	<path d="M 66.873 33.214 c -0.553 0 -1 -0.448 -1 -1 c 0 -11.51 -9.363 -20.874 -20.873 -20.874 c -0.552 0 -1 -0.448 -1 -1 s 0.448 -1 1 -1 c 12.612 0 22.873 10.261 22.873 22.874 C 67.873 32.766 67.426 33.214 66.873 33.214 z" style="stroke: none; stroke-width: 1; stroke-dasharray: none; stroke-linecap: butt; stroke-linejoin: miter; stroke-miterlimit: 10; fill: rgb(0,0,0); fill-rule: nonzero; opacity: 1;" transform=" matrix(1 0 0 1 0 0) " stroke-linecap="round" />
	<path d="M 59.848 32.121 l -0.141 -0.3 c -0.136 -0.292 -0.317 -0.547 -0.533 -0.761 c 0.642 -0.769 0.822 -1.871 0.373 -2.835 l -0.141 -0.303 c -0.275 -0.589 -0.739 -1.03 -1.287 -1.286 c 0.128 -0.571 0.064 -1.163 -0.186 -1.701 l -0.141 -0.3 c -0.29 -0.623 -0.792 -1.081 -1.381 -1.329 c 0.097 -0.525 0.037 -1.085 -0.205 -1.605 l -0.141 -0.3 c -0.3 -0.644 -0.834 -1.132 -1.504 -1.376 c -0.672 -0.244 -1.395 -0.212 -2.038 0.088 l -5.308 2.486 c -1.4 -3.74 -2.788 -5.646 -4.443 -6.135 c -1.071 -0.314 -2.197 -0.018 -3.349 0.886 l -0.595 0.466 l 0.287 0.7 c 1.191 2.908 1.274 7.092 0.362 8.878 c -0.56 -0.494 -1.41 -0.629 -2.163 -0.28 l -6.316 2.946 c -0.462 0.215 -0.824 0.586 -1.021 1.043 c -0.21 0.49 -0.206 1.039 0.013 1.507 l 5.52 11.837 c 0.218 0.468 0.636 0.825 1.146 0.979 c 0.188 0.057 0.383 0.085 0.578 0.085 c 0.299 0 0.599 -0.066 0.877 -0.197 l 6.317 -2.945 c 0.675 -0.315 1.1 -0.943 1.167 -1.608 c 0.004 0 0.009 0 0.013 0 c 1.484 0 3.16 -0.493 4.446 -1.132 l 8.503 -3.965 c 0.644 -0.3 1.133 -0.834 1.377 -1.504 S 60.147 32.765 59.848 32.121 z M 58.056 33.474 c -0.062 0.168 -0.183 0.302 -0.343 0.376 l -8.526 3.976 c -1.846 0.917 -3.789 1.113 -4.605 0.771 l -2.385 -1 l 1.38 2.961 l -6.305 2.932 l -5.419 -11.623 l 6.304 -2.932 l 0.236 0.506 c 0 0 0 0.001 0 0.001 l 2.737 5.869 c 0.169 0.364 0.53 0.577 0.907 0.577 c 0.142 0 0.286 -0.03 0.422 -0.094 c 0.5 -0.233 0.717 -0.828 0.483 -1.329 l -2.409 -5.165 c 2.042 -2.123 1.867 -7.314 0.719 -10.77 c 0.467 -0.24 0.761 -0.208 0.955 -0.15 c 0.739 0.218 1.944 1.421 3.494 5.914 l 0.362 1.051 l 7.308 -3.422 c 0.159 -0.076 0.34 -0.082 0.507 -0.021 c 0.168 0.061 0.302 0.183 0.376 0.343 l 0.141 0.3 c 0.154 0.332 0.01 0.729 -0.322 0.883 l -2.505 1.168 c -0.5 0.233 -0.717 0.828 -0.483 1.329 c 0.17 0.364 0.53 0.578 0.907 0.578 c 0.142 0 0.285 -0.03 0.422 -0.094 l 2.505 -1.168 c 0 0 0 0 0.001 0 l 0.178 -0.083 c 0.336 -0.154 0.729 -0.01 0.884 0.322 l 0.141 0.3 c 0.074 0.159 0.081 0.339 0.021 0.507 c -0.061 0.168 -0.182 0.301 -0.341 0.376 c 0 0 -0.001 0 -0.001 0 l -2.684 1.252 c -0.5 0.233 -0.717 0.829 -0.483 1.329 c 0.17 0.364 0.53 0.577 0.907 0.577 c 0.142 0 0.285 -0.03 0.422 -0.094 l 2.684 -1.252 c 0 0 0 0 0 0 l 0.066 -0.03 c 0.326 -0.152 0.731 -0.004 0.882 0.319 l 0.141 0.302 c 0.154 0.333 0.011 0.729 -0.32 0.884 l -1.246 0.58 c 0 0 0 0 0 0 c 0 0 -0.001 0 -0.001 0 l -1.504 0.702 c -0.5 0.233 -0.717 0.829 -0.483 1.329 c 0.17 0.364 0.53 0.577 0.907 0.577 c 0.142 0 0.285 -0.03 0.422 -0.094 l 1.504 -0.702 c 0 0 0 0 0 0 c 0.336 -0.152 0.728 -0.009 0.882 0.323 l 0.141 0.3 C 58.109 33.126 58.116 33.306 58.056 33.474 z" style="stroke: none; stroke-width: 1; stroke-dasharray: none; stroke-linecap: butt; stroke-linejoin: miter; stroke-miterlimit: 10; fill: rgb(0,0,0); fill-rule: nonzero; opacity: 1;" transform=" matrix(1 0 0 1 0 0) " stroke-linecap="round" />
</g>
</svg>