<svg id="Layer_1" data-name="Layer 1" xmlns="http://www.w3.org/2000/svg" viewBox="0 0 512 512"><title>helmet-glyph</title><path d="M228,122.68C116.17,122.68,25.5,224.48,25.5,350h405C430.5,224.48,339.84,122.68,228,122.68Zm144.41,125c-4.49,2.44-9.44,1.69-11-1.67-24.52-52.12-74.62-87.73-127.22-89.31-3.37-.15-6.14-4.82-6.18-10.42s3-10,6.9-9.88c58.88,1.84,115,41.66,142.4,100C379.12,240.18,376.92,245.24,372.41,247.65Z" fill="#434040"/><path d="M455.36,371.44c-3,12.66-14.58,20.21-26,17.23a798.32,798.32,0,0,0-402.63,0c-11.45,3-23.1-4.57-26-17.23h0c-2.94-12.64,4.43-25.76,16.54-28.91a836.3,836.3,0,0,1,421.64,0c12.11,3.15,19.49,16.26,16.54,28.91Z" fill="#434040"/><path d="M503.51,381.17c11.77,4.48,11.23,8.15-1.2,8.15H436.89c-12.42,0-22.58-9.47-22.58-21.07s9.62-17.41,21.39-12.92Z" fill="#434040"/></svg>